HIERARCHY
ROOT Hips
{
	OFFSET 0.00000 0.00000 0.00000
	CHANNELS 6 Xposition Yposition Zposition Zrotation Yrotation Xrotation 
	JOINT LHipJoint
	{
		OFFSET 0 0 0
		CHANNELS 3 Zrotation Yrotation Xrotation
		JOINT LeftUpLeg
		{
			OFFSET 1.75344 -1.53157 0.77399
			CHANNELS 3 Zrotation Yrotation Xrotation
			JOINT LeftLeg
			{
				OFFSET 2.25415 -6.19323 0.00000
				CHANNELS 3 Zrotation Yrotation Xrotation
				JOINT LeftFoot
				{
					OFFSET 2.30342 -6.32861 0.00000
					CHANNELS 3 Zrotation Yrotation Xrotation
					JOINT LeftToeBase
					{
						OFFSET 0.10958 -0.30108 1.49206
						CHANNELS 3 Zrotation Yrotation Xrotation
						End Site
						{
							OFFSET 0.00000 -0.00000 0.77783
						}
					}
				}
			}
		}
	}
	JOINT RHipJoint
	{
		OFFSET 0 0 0
		CHANNELS 3 Zrotation Yrotation Xrotation
		JOINT RightUpLeg
		{
			OFFSET -1.81912 -1.53156 0.77399
			CHANNELS 3 Zrotation Yrotation Xrotation
			JOINT RightLeg
			{
				OFFSET -2.22882 -6.12365 0.00000
				CHANNELS 3 Zrotation Yrotation Xrotation
				JOINT RightFoot
				{
					OFFSET -2.21943 -6.09785 0.00000
					CHANNELS 3 Zrotation Yrotation Xrotation
					JOINT RightToeBase
					{
						OFFSET -0.18931 -0.52012 1.59379
						CHANNELS 3 Zrotation Yrotation Xrotation
						End Site
						{
							OFFSET -0.00000 -0.00000 0.84686
						}
					}
				}
			}
		}
	}
	JOINT LowerBack
	{
		OFFSET 0 0 0
		CHANNELS 3 Zrotation Yrotation Xrotation
		JOINT Spine
		{
			OFFSET -0.00200 1.66634 -0.14248
			CHANNELS 3 Zrotation Yrotation Xrotation
			JOINT Spine1
			{
				OFFSET -0.00875 1.64542 0.09514
				CHANNELS 3 Zrotation Yrotation Xrotation
				JOINT Neck
				{
					OFFSET 0 0 0
					CHANNELS 3 Zrotation Yrotation Xrotation
					JOINT Neck1
					{
						OFFSET 0.02257 1.59605 0.00839
						CHANNELS 3 Zrotation Yrotation Xrotation
						JOINT Head
						{
							OFFSET -0.10214 1.57530 -0.23335
							CHANNELS 3 Zrotation Yrotation Xrotation
							End Site
							{
								OFFSET -0.03588 1.60717 -0.08062
							}
						}
					}
				}
				JOINT LeftShoulder
				{
					OFFSET 0 0 0
					CHANNELS 3 Zrotation Yrotation Xrotation
					JOINT LeftArm
					{
						OFFSET 2.54983 1.10186 0.40078
						CHANNELS 3 Zrotation Yrotation Xrotation
						JOINT LeftForeArm
						{
							OFFSET 4.28840 -0.00000 0.00000
							CHANNELS 3 Zrotation Yrotation Xrotation
							JOINT LeftHand
							{
								OFFSET 3.06552 -0.00000 -0.00000
								CHANNELS 3 Zrotation Yrotation Xrotation
								JOINT LeftFingerBase
								{
									OFFSET 0 0 0
									CHANNELS 3 Zrotation Yrotation Xrotation
									JOINT LeftHandIndex1
									{
										OFFSET 0.75304 -0.00000 0.00000
										CHANNELS 3 Zrotation Yrotation Xrotation
										End Site
										{
											OFFSET 0.60712 -0.00000 0.00000
										}
									}
								}
								JOINT LThumb
								{
									OFFSET 0 0 0
									CHANNELS 3 Zrotation Yrotation Xrotation
									End Site
									{
										OFFSET 0.61639 -0.00000 0.61639
									}
								}
							}
						}
					}
				}
				JOINT RightShoulder
				{
					OFFSET 0 0 0
					CHANNELS 3 Zrotation Yrotation Xrotation
					JOINT RightArm
					{
						OFFSET -2.60909 1.35448 0.21802
						CHANNELS 3 Zrotation Yrotation Xrotation
						JOINT RightForeArm
						{
							OFFSET -4.52172 -0.00000 -0.00000
							CHANNELS 3 Zrotation Yrotation Xrotation
							JOINT RightHand
							{
								OFFSET -2.89140 -0.00000 0.00000
								CHANNELS 3 Zrotation Yrotation Xrotation
								JOINT RightFingerBase
								{
									OFFSET 0 0 0
									CHANNELS 3 Zrotation Yrotation Xrotation
									JOINT RightHandIndex1
									{
										OFFSET -0.68054 -0.00000 0.00000
										CHANNELS 3 Zrotation Yrotation Xrotation
										End Site
										{
											OFFSET -0.54867 -0.00000 0.00000
										}
									}
								}
								JOINT RThumb
								{
									OFFSET 0 0 0
									CHANNELS 3 Zrotation Yrotation Xrotation
									End Site
									{
										OFFSET -0.55705 -0.00000 0.55705
									}
								}
							}
						}
					}
				}
			}
		}
	}
}
MOTION
Frames: 8
Frame Time: 0.0714286
0.00 0.00 0.00 0 0 0 0 0 0 -21 0 0 0 0 0 0 0 0 0 0 0 0 0 0 21 0 0 0 0 0 0 0 0 0 0 0 0 0 0 0 0 0 0 0 0 0 0 -16 0 0 21 0 0 11 0 0 0 -8 0 0 0 0 0 0 0 0 0 0 0 0 0 0 0 0 0 0 0 0 8 0 0 0 0 0 0 0 0 0 0 0 0 0 0 0 0 0
0.00 0.00 0.00 -178.1320 3.9899 189.6720 0.0000 0.0000 0.0000 -17.8005 -12.8644 -22.8679 3.9483 12.0913 36.0557 2.0703 4.7310 -29.1985 3.9043 -12.0320 -35.8453 0.0000 0.0000 0.0000 24.4528 16.0839 -15.7996 -2.4231 -9.6968 28.0004 -0.4436 -15.5286 -26.0212 -0.2547 3.2474 -8.9682 1.9338 -0.1854 19.4045 0.0889 0.2986 -1.1834 -1.1001 0.0492 -12.2613 -7.7834 -2.3593 -5.0785 7.3197 -2.3075 -5.3815 3.7404 -0.9120 -0.6336 -0.0000 0.0000 0.0000 -12.9127 43.4976 -29.8480 20.0586 -30.7129 -5.5613 -0.0000 -0.0000 4.8216 -17.1141 -17.3993 5.2606 -7.1250 0.0000 -0.0000 -28.4838 13.0105 24.6877 -0.0000 0.0000 0.0000 1.4105 -38.8323 19.4547 -19.1270 29.5762 -5.0934 0.0000 0.0000 25.3703 2.5334 -61.0907 -2.2181 7.1250 -0.0000 -0.0000 97.3415 -71.2743 -78.1204
0.00 0.00 0.00 -178.2420 4.9677 196.0770 0.0000 0.0000 0.0000 -15.9069 -13.3304 -39.6078 7.4954 15.7353 50.7242 2.7062 2.0958 -31.9156 2.5813 -9.9842 -28.9257 0.0000 0.0000 0.0000 21.3972 16.5461 -34.8819 -6.2170 -14.6354 45.8466 -1.6214 -10.6792 -29.9739 -0.3665 3.8888 -10.7641 1.8659 -0.2740 24.2457 0.1372 0.3350 -1.2913 -1.0518 0.0592 -15.1881 -6.9359 -2.0679 -6.5966 6.1649 -1.5806 -7.6569 3.1910 -0.4216 -1.1797 0.0000 0.0000 0.0000 -20.8830 51.4332 -37.0166 22.0775 -33.0645 -6.6281 -0.0000 -0.0000 3.9839 4.6181 -20.0092 -1.5832 -7.1250 0.0000 -0.0000 -15.2296 10.4447 12.6848 0.0000 0.0000 0.0000 2.0904 -48.4441 7.3394 -18.8169 29.1905 -4.9412 0.0000 0.0000 29.2217 -6.3620 -63.4334 5.6949 7.1250 -0.0000 -0.0000 89.6388 74.0510 106.2296
0.00 0.00 0.00 -178.1740 4.5529 204.6280 0.0000 0.0000 0.0000 -11.5888 -16.5144 -58.7320 12.1872 18.4687 66.5809 3.4578 -0.5257 -35.1571 2.9932 -10.6840 -31.2214 0.0000 0.0000 0.0000 17.8629 17.6473 -55.2395 -11.0442 -17.9566 62.9250 -2.9044 -6.5370 -34.9711 -0.1418 2.4265 -6.6859 1.6707 -0.2095 24.6595 0.0258 0.3812 -0.8943 -1.0899 0.1069 -14.9483 -4.3741 -2.9316 -9.2550 5.0141 -1.5723 -14.7204 2.3732 0.0439 -3.1004 -0.0000 -0.0000 0.0000 -46.3402 48.8500 -41.5778 20.6116 -31.3721 -5.8464 -0.0000 -0.0000 3.5386 11.5505 -22.5572 -4.4827 -7.1250 0.0000 -0.0000 -10.8798 7.3424 9.5790 -0.0000 -0.0000 0.0000 27.9002 -50.6900 -5.7001 -17.3905 27.3697 -4.2653 0.0000 0.0000 30.5087 -9.3825 -63.3749 8.4026 7.1250 -0.0000 -0.0000 91.5705 74.9254 107.2453
0.00 0.00 0.00 -178.1190 0.8007 210.1710 0.0000 0.0000 0.0000 -7.8587 -17.9669 -73.7723 17.0009 19.7830 81.2006 4.1373 -5.3604 -37.4911 2.2176 -9.3053 -26.7551 0.0000 0.0000 0.0000 16.6335 16.8772 -70.2880 -16.3707 -19.6812 79.3344 -3.6746 -6.4642 -38.8359 -0.0192 0.8954 -2.4611 0.9626 0.6031 27.1323 0.3624 1.3102 -2.3083 -0.6725 0.5483 -17.2609 -5.7237 -2.1274 -6.6109 6.9434 -4.9135 -24.1974 3.5005 -3.8170 -5.9631 -0.0000 -0.0000 0.0000 -79.1800 23.1023 -21.8982 16.2384 -25.8428 -3.7493 -0.0000 -0.0000 16.7058 7.7255 -31.7820 -4.0868 -7.1250 0.0000 -0.0000 -13.5137 -1.2627 14.2059 -0.0000 -0.0000 0.0000 65.3683 -27.5255 -10.5289 -13.7316 22.3497 -2.7252 0.0000 0.0000 42.3800 -7.9146 -66.2106 7.2496 7.1250 -0.0000 -0.0000 99.9924 74.0262 116.7385
0.00 0.00 0.00 -179.3530 -11.7210 199.5540 0.0000 0.0000 0.0000 -11.7244 -15.8890 -55.5041 12.4693 18.5821 67.4688 1.7476 -13.6823 -24.1694 1.6304 -8.0496 -22.8648 0.0000 0.0000 0.0000 23.2465 8.4934 -51.9761 -12.6895 -18.6672 68.1584 -1.5712 -13.0909 -31.5461 -0.0083 0.5890 -1.6185 3.6056 3.6009 23.4584 0.5825 5.8247 -1.9347 -3.4468 2.2982 -15.1513 -4.4232 -4.1616 -8.4009 2.4166 -7.0903 -18.3527 1.7185 -4.1424 -4.4198 0.0000 0.0000 0.0000 -71.4877 -22.7686 51.7913 74.3498 -59.0540 -46.4896 -0.0000 0.0000 -2.9190 0.3122 -44.5883 -0.2192 -7.1250 0.0000 -0.0000 -18.0997 -12.7167 22.6576 0.0000 0.0000 0.0000 80.8102 68.7781 56.3131 -26.9645 38.1453 -9.4772 0.0000 0.0000 19.0986 -18.6748 -65.4805 17.0933 7.1250 -0.0000 -0.0000 108.3176 76.5045 121.9333
0.00 0.00 0.00 -179.3870 -16.2554 197.3460 0.0000 0.0000 0.0000 -12.7788 -15.3220 -49.2279 10.1651 17.5017 60.0389 0.5915 -16.2321 -16.7168 0.7488 -5.5272 -15.4187 0.0000 0.0000 0.0000 25.4942 3.9462 -45.9227 -10.3200 -17.5859 60.5526 -0.6698 -14.9695 -27.1635 -0.0498 1.4405 -3.9617 4.3896 4.0673 22.3161 1.2616 6.6902 -1.8909 -3.3009 2.6986 -14.3728 -4.1233 -3.8955 -10.9671 0.9582 -6.4652 -15.6546 0.9952 -3.7205 -3.0661 -0.0000 -0.0000 0.0000 -63.4143 -28.2992 55.0707 105.4498 -59.0786 -73.3385 -0.0000 0.0000 -5.1797 -4.9101 -45.0156 3.4772 -7.1250 0.0000 -0.0000 -20.5125 -12.7105 26.0356 -0.0000 -0.0000 0.0000 51.5272 77.8897 34.2622 -34.9166 44.7525 -14.7546 0.0000 0.0000 14.1060 -21.0650 -64.9636 19.2377 7.1250 -0.0000 -0.0000 109.7531 77.1723 122.5559
0.00 0.00 0.00 -180.4750 -26.4087 191.8940 0.0000 0.0000 0.0000 -16.6566 -13.7181 -32.4956 5.2356 13.6443 41.8308 -0.7241 -15.4378 1.2819 0.1422 2.4301 6.6959 0.0000 0.0000 0.0000 27.7414 -7.2902 -31.3410 -5.3739 -13.7929 42.4141 0.8581 -18.7656 -17.3010 -0.0091 0.6148 -1.6894 5.6825 3.4300 20.4727 1.7860 6.1844 -2.4612 -3.1436 2.4252 -13.9395 -2.9432 -2.7273 -10.8622 -0.4141 -4.2728 -10.6542 0.2837 -2.4017 -1.4929 -0.0000 0.0000 0.0000 -51.1831 -30.6006 60.8048 132.2394 -52.0514 -95.6032 -0.0000 0.0000 -8.1313 -11.8424 -39.1498 7.5411 -7.1250 0.0000 -0.0000 -23.6849 -6.9618 28.8165 -0.0000 0.0000 0.0000 -4.6978 75.3551 -9.3175 -47.8327 52.0831 -24.4537 0.0000 0.0000 12.7164 -15.6997 -63.9713 14.1749 7.1250 -0.0000 -0.0000 99.5902 76.4673 113.5758
